<?xml version="1.0" encoding="utf-8"?>
<!-- Generator: Adobe Illustrator 16.0.0, SVG Export Plug-In . SVG Version: 6.00 Build 0)  -->
<!DOCTYPE svg PUBLIC "-//W3C//DTD SVG 1.1//EN" "http://www.w3.org/Graphics/SVG/1.1/DTD/svg11.dtd">
<svg version="1.1" id="svg" xmlns="http://www.w3.org/2000/svg" xmlns:xlink="http://www.w3.org/1999/xlink" x="0px" y="0px"
	 width="230.333px" height="87.105px" viewBox="13.833 10.847 230.333 87.105"
	 style="enable-background:new 13.833 10.847 230.333 87.105;" xml:space="preserve">
<g>
	<g>
		<g>
			<path style="fill:#D3D1D1;" d="M94.907,44.948c0.18,2.268,2.412,3.348,4.967,3.348c1.872,0,3.384-0.252,4.859-0.72l0.72,3.708
				c-1.8,0.72-3.996,1.08-6.372,1.08c-5.975,0-9.395-3.456-9.395-8.963c0-4.463,2.771-9.395,8.891-9.395
				c5.688,0,7.847,4.427,7.847,8.783c0,0.936-0.108,1.764-0.18,2.16H94.907z M101.35,41.204c0-1.332-0.576-3.563-3.096-3.563
				c-2.304,0-3.24,2.088-3.384,3.563H101.35z"/>
			<path style="fill:#D3D1D1;" d="M127.089,43.004c0,6.443-4.571,9.395-9.287,9.395c-5.147,0-9.107-3.384-9.107-9.071
				c0-5.688,3.743-9.323,9.395-9.323C123.49,34.005,127.089,37.713,127.089,43.004z M114.347,43.184c0,3.023,1.26,5.292,3.599,5.292
				c2.124,0,3.492-2.124,3.492-5.292c0-2.628-1.008-5.292-3.492-5.292C115.319,37.893,114.347,40.592,114.347,43.184z"/>
			<path style="fill:#D3D1D1;" d="M130.439,47.215c1.008,0.612,3.096,1.332,4.715,1.332c1.656,0,2.34-0.576,2.34-1.476
				s-0.54-1.332-2.592-2.016c-3.635-1.224-5.039-3.204-5.003-5.291c0-3.276,2.808-5.759,7.163-5.759
				c2.052,0,3.888,0.468,4.968,1.008l-0.972,3.779c-0.792-0.432-2.304-1.008-3.815-1.008c-1.332,0-2.088,0.54-2.088,1.44
				c0,0.828,0.684,1.26,2.844,2.016c3.348,1.152,4.751,2.844,4.788,5.436c0,3.275-2.592,5.687-7.631,5.687
				c-2.304,0-4.355-0.504-5.687-1.224L130.439,47.215z"/>
		</g>
		<g>
			<path style="fill:#788EEA;" d="M153.916,27.743v13.966c0,4.176,1.698,6.299,4.709,6.299c3.088,0,4.787-2.016,4.787-6.299V27.743
				h5.868v13.606c0,7.487-4.053,11.05-10.848,11.05c-6.563,0-10.423-3.383-10.423-11.122V27.743H153.916z"/>
			<path style="fill:#788EEA;" d="M174.57,46.352c1.583,0.756,4.015,1.512,6.524,1.512c2.702,0,4.131-1.043,4.131-2.627
				c0-1.512-1.235-2.376-4.362-3.419c-4.324-1.404-7.142-3.636-7.142-7.163c0-4.14,3.706-7.307,9.844-7.307
				c2.934,0,5.096,0.576,6.64,1.224l-1.313,4.428c-1.042-0.468-2.895-1.152-5.443-1.152s-3.783,1.08-3.783,2.34
				c0,1.548,1.467,2.232,4.826,3.42c4.594,1.583,6.756,3.815,6.756,7.235c0,4.067-3.359,7.522-10.501,7.522
				c-2.972,0-5.906-0.719-7.373-1.475L174.57,46.352z"/>
			<path style="fill:#788EEA;" d="M195.224,28.066c2.162-0.324,4.98-0.504,7.953-0.504c4.941,0,8.146,0.828,10.654,2.592
				c2.702,1.872,4.401,4.859,4.401,9.143c0,4.644-1.814,7.847-4.324,9.827c-2.741,2.124-6.91,3.131-12.006,3.131
				c-3.05,0-5.212-0.18-6.679-0.36V28.066z M201.131,47.864c0.502,0.108,1.313,0.108,2.047,0.108
				c5.327,0.036,8.802-2.699,8.802-8.495c0.038-5.04-3.127-7.703-8.185-7.703c-1.313,0-2.162,0.108-2.664,0.216V47.864z"/>
		</g>
	</g>
	<g>
		<path style="fill:#D3D1D1;" d="M101.853,70.585c-0.063-1.7-0.126-3.759-0.126-5.815h-0.063c-0.441,1.805-1.029,3.82-1.575,5.479
			l-1.722,5.522h-2.499l-1.512-5.48c-0.462-1.658-0.945-3.674-1.281-5.521h-0.042c-0.084,1.91-0.147,4.094-0.252,5.857l-0.252,5.375
			h-2.96l0.903-14.151h4.262l1.386,4.724c0.441,1.639,0.882,3.402,1.197,5.061h0.063c0.399-1.638,0.882-3.506,1.344-5.081
			l1.512-4.703h4.178l0.777,14.151h-3.128L101.853,70.585z"/>
		<path style="fill:#D3D1D1;" d="M116.071,70.018h-5.207v3.359h5.816v2.625h-9.028V61.851h8.734v2.624h-5.522v2.939h5.207V70.018z"
			/>
		<path style="fill:#D3D1D1;" d="M130.833,70.585c-0.063-1.7-0.126-3.759-0.126-5.815h-0.063c-0.441,1.805-1.029,3.82-1.575,5.479
			l-1.722,5.522h-2.499l-1.512-5.48c-0.462-1.658-0.945-3.674-1.281-5.521h-0.042c-0.084,1.91-0.147,4.094-0.252,5.857l-0.252,5.375
			h-2.96l0.903-14.151h4.262l1.386,4.724c0.441,1.639,0.882,3.402,1.197,5.061h0.063c0.399-1.638,0.882-3.506,1.344-5.081
			l1.512-4.703h4.178l0.777,14.151h-3.128L130.833,70.585z"/>
		<path style="fill:#D3D1D1;" d="M136.631,62.04c0.84-0.168,2.541-0.293,4.136-0.293c1.953,0,3.149,0.188,4.178,0.797
			c0.987,0.525,1.701,1.491,1.701,2.771c0,1.26-0.735,2.436-2.331,3.023v0.043c1.617,0.44,2.813,1.658,2.813,3.484
			c0,1.281-0.588,2.289-1.47,3.003c-1.029,0.819-2.75,1.28-5.564,1.28c-1.575,0-2.75-0.104-3.464-0.209V62.04z M139.802,67.458h1.05
			c1.68,0,2.583-0.693,2.583-1.743c0-1.071-0.819-1.638-2.268-1.638c-0.693,0-1.092,0.042-1.365,0.084V67.458z M139.802,73.735
			c0.315,0.042,0.693,0.042,1.239,0.042c1.449,0,2.729-0.546,2.729-2.036c0-1.428-1.281-1.995-2.876-1.995h-1.092V73.735z"/>
		<path style="fill:#D3D1D1;" d="M157.734,70.018h-5.207v3.359h5.816v2.625h-9.028V61.851h8.734v2.624h-5.522v2.939h5.207V70.018z"
			/>
		<path style="fill:#D3D1D1;" d="M160.529,62.04c1.029-0.168,2.562-0.293,4.262-0.293c2.1,0,3.569,0.314,4.577,1.112
			c0.84,0.672,1.302,1.659,1.302,2.96c0,1.807-1.281,3.045-2.499,3.486v0.063c0.987,0.398,1.533,1.344,1.89,2.646
			c0.441,1.596,0.882,3.443,1.155,3.989h-3.275c-0.231-0.398-0.567-1.554-0.987-3.297c-0.378-1.764-0.987-2.246-2.289-2.268h-0.966
			v5.564h-3.17V62.04z M163.699,68.129h1.26c1.596,0,2.541-0.799,2.541-2.037c0-1.302-0.882-1.953-2.352-1.974
			c-0.777,0-1.218,0.063-1.449,0.104V68.129z"/>
		<path style="fill:#D3D1D1;" d="M187.617,75.604c-0.588,0.293-1.911,0.608-3.633,0.608c-4.892,0-7.412-3.044-7.412-7.075
			c0-4.83,3.443-7.518,7.726-7.518c1.659,0,2.919,0.336,3.486,0.631l-0.651,2.54c-0.651-0.272-1.554-0.524-2.688-0.524
			c-2.54,0-4.514,1.532-4.514,4.682c0,2.834,1.679,4.619,4.535,4.619c0.967,0,2.037-0.21,2.667-0.462L187.617,75.604z"/>
		<path style="fill:#D3D1D1;" d="M189.719,61.851h3.213v11.464h5.627v2.688h-8.84V61.851z"/>
		<path style="fill:#D3D1D1;" d="M203.662,61.851v14.151h-3.213V61.851H203.662z"/>
		<path style="fill:#D3D1D1;" d="M214.853,70.018h-5.207v3.359h5.815v2.625h-9.028V61.851h8.734v2.624h-5.521v2.939h5.207V70.018z"
			/>
		<path style="fill:#D3D1D1;" d="M217.647,76.002V61.851h3.737l2.939,5.187c0.84,1.49,1.68,3.254,2.31,4.85h0.063
			c-0.211-1.869-0.273-3.779-0.273-5.9v-4.136h2.939v14.151h-3.359l-3.023-5.459c-0.84-1.512-1.764-3.338-2.457-4.997l-0.063,0.021
			c0.084,1.869,0.126,3.863,0.126,6.174v4.262H217.647z"/>
		<path style="fill:#D3D1D1;" d="M234.867,64.539h-3.801v-2.688h10.877v2.688h-3.863v11.464h-3.213V64.539z"/>
	</g>
</g>
<g>
	<g>
		<g>
			<path style="fill:#D3D1D1;" d="M16.351,53.691c-0.616,0.912-0.616,2.402,0,3.314l26.567,39.289
				c0.616,0.912,0.819,0.809,0.452-0.228L24.882,43.949c-0.368-1.037-1.172-1.139-1.789-0.228L16.351,53.691z"/>
		</g>
		<g>
			<g>
				<path style="fill:#788EEA;" d="M46.812,12.503c-0.616-0.911-1.624-0.911-2.24,0L26.988,38.51
					c-0.616,0.911-0.819,2.505-0.452,3.542L45.024,94.17c0.368,1.036,0.969,1.036,1.337,0l18.489-52.119
					c0.368-1.037,0.165-2.63-0.452-3.542L46.812,12.503z"/>
			</g>
		</g>
		<g>
			<path style="fill:#D3D1D1;" d="M68.293,43.721c-0.616-0.911-1.421-0.809-1.789,0.228L48.015,96.067
				c-0.368,1.036-0.165,1.14,0.452,0.228l26.567-39.289c0.616-0.912,0.616-2.402,0-3.314L68.293,43.721z"/>
		</g>
	</g>
</g>
</svg>
