<svg id="svg" xmlns="http://www.w3.org/2000/svg" xmlns:xlink="http://www.w3.org/1999/xlink" width="400" height="103.2258064516129" viewBox="0, 0, 400,103.2258064516129"><g id="svgg"><path id="path0" d="M48.376 11.199 C 48.123 11.492,47.748 11.895,47.542 12.093 C 47.335 12.292,47.167 12.509,47.167 12.574 C 47.167 12.640,46.885 13.043,46.542 13.470 C 46.198 13.897,45.860 14.322,45.792 14.415 C 45.605 14.666,42.534 18.515,42.114 19.024 C 41.914 19.266,41.600 19.675,41.417 19.933 C 41.233 20.190,40.877 20.639,40.625 20.931 C 40.373 21.222,40.167 21.545,40.167 21.647 C 40.167 21.749,40.101 21.833,40.020 21.833 C 39.940 21.833,39.546 22.263,39.145 22.788 C 38.745 23.313,38.304 23.882,38.167 24.052 C 37.587 24.770,37.356 25.061,36.167 26.583 C 35.479 27.462,34.242 29.026,33.417 30.059 C 32.592 31.092,31.767 32.150,31.583 32.410 C 31.230 32.912,30.905 33.295,29.816 34.500 C 28.730 35.701,28.598 36.667,29.352 37.903 C 29.524 38.185,29.666 38.578,29.666 38.775 C 29.666 38.972,29.853 39.535,30.082 40.025 C 30.310 40.515,30.500 41.029,30.504 41.167 C 30.508 41.304,30.656 41.717,30.833 42.083 C 31.010 42.450,31.158 42.901,31.161 43.086 C 31.164 43.270,31.307 43.683,31.478 44.002 C 31.649 44.322,31.846 44.846,31.915 45.167 C 31.984 45.487,32.182 46.028,32.354 46.368 C 32.526 46.708,32.667 47.116,32.667 47.274 C 32.667 47.432,32.808 47.866,32.980 48.239 C 33.283 48.896,33.496 49.487,34.182 51.583 C 34.362 52.133,34.620 52.820,34.755 53.109 C 34.890 53.397,35.000 53.761,35.000 53.916 C 35.000 54.071,35.108 54.398,35.240 54.641 C 35.483 55.091,36.002 56.589,36.426 58.066 C 36.555 58.515,36.763 59.040,36.888 59.233 C 37.014 59.426,37.166 59.846,37.226 60.167 C 37.286 60.487,37.440 60.951,37.569 61.197 C 37.697 61.443,37.854 61.893,37.917 62.197 C 37.981 62.501,38.138 62.917,38.267 63.121 C 38.396 63.324,38.608 63.897,38.737 64.393 C 38.866 64.890,39.091 65.525,39.236 65.806 C 39.381 66.087,39.500 66.455,39.500 66.623 C 39.500 66.792,39.646 67.215,39.824 67.564 C 40.002 67.914,40.198 68.436,40.261 68.725 C 40.323 69.014,40.515 69.528,40.687 69.868 C 40.859 70.208,41.000 70.643,41.000 70.835 C 41.000 71.027,41.119 71.413,41.264 71.694 C 41.409 71.975,41.637 72.623,41.770 73.134 C 41.903 73.646,42.077 74.144,42.156 74.240 C 42.235 74.337,42.413 74.801,42.551 75.270 C 42.689 75.740,42.922 76.355,43.068 76.637 C 43.214 76.919,43.334 77.323,43.334 77.533 C 43.334 77.744,43.476 78.148,43.648 78.431 C 43.820 78.713,44.015 79.201,44.080 79.514 C 44.146 79.827,44.293 80.233,44.408 80.417 C 44.522 80.600,44.712 81.162,44.829 81.667 C 44.946 82.171,45.139 82.696,45.257 82.833 C 45.375 82.971,45.526 83.383,45.592 83.750 C 45.658 84.117,45.842 84.679,46.002 85.000 C 46.162 85.321,46.347 85.846,46.413 86.167 C 46.479 86.487,46.632 86.908,46.754 87.101 C 46.876 87.293,47.027 87.743,47.090 88.101 C 47.152 88.458,47.337 88.984,47.500 89.270 C 47.663 89.556,47.850 90.108,47.916 90.496 C 48.161 91.947,48.965 92.195,49.285 90.919 C 49.396 90.476,49.603 89.869,49.745 89.570 C 49.887 89.271,50.051 88.777,50.110 88.472 C 50.168 88.166,50.355 87.718,50.525 87.474 C 50.694 87.231,50.833 86.853,50.833 86.635 C 50.833 86.416,50.979 85.951,51.157 85.602 C 51.335 85.253,51.530 84.731,51.590 84.442 C 51.650 84.153,51.798 83.760,51.919 83.568 C 52.040 83.377,52.225 82.889,52.330 82.485 C 52.434 82.081,52.665 81.432,52.843 81.043 C 53.021 80.655,53.167 80.204,53.167 80.041 C 53.167 79.878,53.307 79.484,53.478 79.164 C 53.649 78.845,53.842 78.343,53.906 78.049 C 53.971 77.755,54.168 77.215,54.345 76.849 C 54.522 76.482,54.667 76.062,54.667 75.914 C 54.667 75.766,54.755 75.481,54.863 75.281 C 55.100 74.841,55.619 73.423,56.521 70.750 C 56.892 69.650,57.266 68.665,57.352 68.561 C 57.438 68.457,57.613 68.007,57.741 67.561 C 58.153 66.123,58.511 65.095,58.780 64.583 C 58.925 64.308,59.141 63.746,59.260 63.333 C 59.378 62.921,59.712 61.946,60.001 61.167 C 60.289 60.387,60.616 59.450,60.726 59.083 C 60.836 58.717,61.009 58.267,61.112 58.083 C 61.214 57.900,61.375 57.487,61.471 57.167 C 61.756 56.205,62.468 54.216,62.644 53.889 C 62.735 53.721,62.931 53.208,63.082 52.750 C 63.869 50.348,64.019 49.946,64.249 49.617 C 64.387 49.420,64.500 49.085,64.500 48.873 C 64.500 48.661,64.641 48.208,64.813 47.868 C 64.985 47.528,65.181 46.987,65.248 46.667 C 65.315 46.346,65.511 45.849,65.685 45.564 C 65.858 45.278,66.000 44.862,66.000 44.641 C 66.000 44.419,66.140 43.962,66.312 43.626 C 66.483 43.289,66.711 42.666,66.818 42.242 C 66.925 41.817,67.115 41.307,67.240 41.110 C 67.365 40.912,67.516 40.514,67.577 40.225 C 67.637 39.936,67.832 39.414,68.010 39.064 C 68.188 38.715,68.333 38.292,68.333 38.123 C 68.333 37.955,68.435 37.614,68.560 37.367 C 69.069 36.357,69.034 36.125,68.244 35.252 C 67.835 34.800,67.500 34.383,67.500 34.324 C 67.500 34.266,67.344 34.037,67.152 33.817 C 66.961 33.597,66.643 33.203,66.444 32.943 C 66.246 32.682,65.777 32.082,65.404 31.609 C 65.030 31.137,64.655 30.628,64.570 30.478 C 64.486 30.329,64.138 29.879,63.797 29.478 C 62.759 28.259,62.118 27.447,61.333 26.357 C 60.921 25.783,60.409 25.112,60.196 24.866 C 59.984 24.619,59.610 24.154,59.365 23.833 C 59.121 23.512,58.470 22.682,57.919 21.988 C 57.368 21.294,56.767 20.518,56.583 20.263 C 56.400 20.008,55.863 19.322,55.391 18.739 C 54.919 18.155,53.981 16.945,53.308 16.048 C 52.634 15.152,51.971 14.298,51.833 14.151 C 51.696 14.004,51.433 13.673,51.250 13.416 C 50.460 12.307,49.103 10.667,48.975 10.667 C 48.899 10.667,48.629 10.906,48.376 11.199 M26.833 38.292 C 26.833 38.360,26.646 38.635,26.416 38.901 C 26.187 39.167,26.000 39.448,26.000 39.526 C 26.000 39.603,25.730 39.947,25.400 40.291 C 25.071 40.635,24.681 41.104,24.534 41.333 C 24.386 41.563,24.171 41.862,24.054 42.000 C 23.140 43.078,22.833 43.479,22.833 43.599 C 22.833 43.676,22.682 43.891,22.497 44.077 C 22.312 44.264,21.789 44.904,21.335 45.500 C 20.211 46.974,19.795 47.496,19.494 47.814 C 19.354 47.962,19.036 48.383,18.789 48.750 C 18.542 49.117,18.151 49.635,17.920 49.901 C 17.689 50.167,17.500 50.442,17.500 50.512 C 17.500 50.582,17.200 50.952,16.833 51.333 C 16.113 52.083,15.999 52.601,16.458 53.035 C 16.754 53.314,17.078 53.714,17.986 54.917 C 18.262 55.283,18.604 55.733,18.746 55.917 C 18.887 56.100,19.234 56.569,19.516 56.958 C 19.798 57.348,20.081 57.667,20.145 57.667 C 20.209 57.667,20.402 57.910,20.574 58.208 C 20.746 58.506,20.988 58.862,21.113 59.000 C 21.435 59.355,22.839 61.205,23.333 61.925 C 23.563 62.259,23.919 62.688,24.125 62.879 C 24.331 63.070,24.502 63.307,24.505 63.405 C 24.508 63.503,24.777 63.846,25.102 64.167 C 25.428 64.487,25.811 64.975,25.954 65.250 C 26.096 65.525,26.271 65.788,26.343 65.835 C 26.460 65.911,27.005 66.586,27.794 67.633 C 27.953 67.844,28.290 68.266,28.542 68.572 C 28.794 68.877,29.000 69.209,29.000 69.308 C 29.000 69.407,29.150 69.569,29.333 69.667 C 29.517 69.765,29.667 69.922,29.667 70.016 C 29.667 70.110,30.192 70.810,30.833 71.572 C 31.475 72.334,32.000 73.038,32.000 73.137 C 32.000 73.236,32.106 73.377,32.235 73.450 C 32.365 73.523,32.744 73.981,33.077 74.467 C 33.411 74.953,33.830 75.516,34.009 75.717 C 34.654 76.445,34.811 76.647,34.983 76.968 C 35.079 77.148,35.306 77.473,35.488 77.689 C 35.967 78.262,38.027 80.897,38.417 81.435 C 38.872 82.064,40.439 84.026,40.732 84.333 C 40.863 84.471,41.064 84.790,41.178 85.042 C 41.293 85.294,41.445 85.500,41.516 85.500 C 41.586 85.500,41.686 85.632,41.737 85.793 C 41.788 85.954,42.159 86.429,42.561 86.849 C 42.963 87.268,43.387 87.788,43.502 88.004 C 43.732 88.433,43.912 88.672,44.417 89.217 C 44.600 89.415,44.825 89.720,44.917 89.895 C 45.008 90.070,45.158 90.199,45.250 90.181 C 45.452 90.143,45.397 88.976,45.186 88.844 C 45.104 88.792,44.923 88.366,44.783 87.896 C 44.644 87.427,44.418 86.824,44.280 86.557 C 44.142 86.290,43.976 85.792,43.912 85.451 C 43.848 85.109,43.654 84.552,43.481 84.213 C 43.308 83.874,43.167 83.480,43.167 83.337 C 43.167 83.195,43.022 82.808,42.845 82.478 C 42.668 82.149,42.469 81.589,42.403 81.234 C 42.336 80.880,42.144 80.364,41.975 80.087 C 41.806 79.810,41.668 79.350,41.667 79.064 C 41.667 78.779,41.528 78.366,41.357 78.147 C 41.187 77.929,40.994 77.453,40.927 77.091 C 40.860 76.729,40.662 76.150,40.486 75.806 C 40.310 75.462,40.167 74.962,40.167 74.696 C 40.167 74.429,40.028 74.033,39.859 73.814 C 39.690 73.596,39.504 73.173,39.447 72.875 C 39.389 72.577,39.190 72.000,39.004 71.592 C 38.819 71.185,38.664 70.716,38.661 70.551 C 38.659 70.385,38.472 69.875,38.246 69.417 C 38.021 68.958,37.836 68.449,37.835 68.285 C 37.834 68.121,37.692 67.708,37.520 67.368 C 37.348 67.028,37.153 66.487,37.087 66.167 C 37.021 65.846,36.864 65.420,36.737 65.220 C 36.611 65.020,36.457 64.533,36.395 64.137 C 36.334 63.741,36.151 63.246,35.989 63.037 C 35.827 62.828,35.643 62.340,35.580 61.953 C 35.516 61.567,35.323 61.016,35.149 60.730 C 34.975 60.445,34.833 59.992,34.833 59.726 C 34.833 59.459,34.729 59.092,34.601 58.910 C 34.474 58.728,34.256 58.196,34.117 57.727 C 33.978 57.259,33.745 56.645,33.599 56.363 C 33.453 56.081,33.333 55.677,33.332 55.467 C 33.331 55.256,33.146 54.708,32.920 54.250 C 32.695 53.792,32.508 53.319,32.505 53.199 C 32.502 53.080,32.358 52.667,32.186 52.283 C 32.013 51.898,31.821 51.347,31.759 51.058 C 31.698 50.769,31.502 50.247,31.324 49.898 C 31.146 49.549,31.000 49.109,31.000 48.921 C 31.000 48.732,30.860 48.317,30.689 47.998 C 30.518 47.678,30.323 47.154,30.256 46.833 C 30.189 46.512,30.040 46.100,29.925 45.917 C 29.811 45.733,29.663 45.283,29.596 44.917 C 29.530 44.550,29.354 44.063,29.206 43.833 C 29.058 43.604,28.842 43.042,28.726 42.583 C 28.143 40.291,26.835 37.323,26.833 38.292 M70.086 38.708 C 70.048 38.823,69.930 39.254,69.825 39.667 C 69.720 40.079,69.566 40.500,69.483 40.601 C 69.400 40.703,69.032 41.707,68.667 42.833 C 68.301 43.959,67.939 44.964,67.863 45.065 C 67.787 45.167,67.629 45.587,67.512 46.000 C 67.395 46.413,67.243 46.825,67.175 46.917 C 67.107 47.008,66.951 47.458,66.828 47.917 C 66.705 48.375,66.469 48.975,66.303 49.250 C 66.137 49.525,66.001 49.940,66.001 50.171 C 66.000 50.403,65.895 50.743,65.766 50.926 C 65.638 51.110,65.446 51.595,65.340 52.005 C 65.234 52.415,65.001 53.068,64.823 53.457 C 64.646 53.845,64.500 54.341,64.500 54.559 C 64.500 54.777,64.361 55.134,64.191 55.353 C 64.021 55.571,63.828 56.041,63.762 56.398 C 63.697 56.754,63.498 57.315,63.322 57.645 C 63.145 57.975,63.000 58.370,63.000 58.523 C 63.000 58.675,62.813 59.201,62.585 59.692 C 62.357 60.182,62.169 60.748,62.168 60.948 C 62.167 61.149,62.094 61.359,62.005 61.414 C 61.916 61.468,61.689 62.032,61.500 62.667 C 61.311 63.301,61.092 63.860,61.014 63.908 C 60.935 63.957,60.818 64.278,60.754 64.623 C 60.689 64.968,60.499 65.553,60.330 65.922 C 60.162 66.292,59.970 66.817,59.903 67.089 C 59.837 67.361,59.644 67.845,59.474 68.164 C 59.305 68.484,59.167 68.922,59.167 69.138 C 59.167 69.355,59.056 69.731,58.920 69.974 C 58.650 70.459,58.107 71.958,57.742 73.228 C 57.614 73.674,57.426 74.138,57.325 74.260 C 57.224 74.382,57.037 74.842,56.910 75.282 C 56.534 76.582,55.886 78.379,55.601 78.917 C 55.455 79.192,55.335 79.551,55.334 79.715 C 55.334 79.879,55.183 80.307,55.000 80.667 C 54.817 81.026,54.664 81.454,54.661 81.618 C 54.659 81.782,54.472 82.292,54.246 82.750 C 54.021 83.208,53.836 83.684,53.835 83.808 C 53.834 83.932,53.725 84.269,53.593 84.558 C 53.460 84.847,53.230 85.513,53.082 86.039 C 52.933 86.564,52.750 87.032,52.675 87.078 C 52.599 87.125,52.486 87.436,52.424 87.771 C 52.361 88.105,52.165 88.648,51.989 88.978 C 51.323 90.221,51.447 91.646,52.139 90.707 C 52.292 90.501,53.092 89.472,53.917 88.422 C 54.742 87.372,55.717 86.126,56.083 85.654 C 56.450 85.181,56.975 84.545,57.250 84.241 C 57.525 83.937,57.938 83.414,58.167 83.078 C 58.396 82.742,58.752 82.312,58.958 82.121 C 59.165 81.930,59.333 81.692,59.333 81.593 C 59.333 81.494,59.621 81.114,59.973 80.748 C 60.324 80.383,60.680 79.962,60.764 79.813 C 60.848 79.665,61.199 79.215,61.544 78.813 C 62.355 77.869,64.487 75.197,64.917 74.587 C 65.100 74.326,65.443 73.903,65.678 73.647 C 65.914 73.390,66.289 72.939,66.511 72.644 C 66.734 72.349,67.704 71.140,68.667 69.958 C 69.629 68.777,70.517 67.623,70.639 67.394 C 70.762 67.166,70.968 66.938,71.098 66.888 C 71.227 66.838,71.333 66.727,71.333 66.642 C 71.333 66.556,71.690 66.053,72.125 65.525 C 72.560 64.997,73.085 64.340,73.291 64.065 C 73.498 63.790,73.910 63.299,74.208 62.974 C 74.506 62.648,75.200 61.799,75.750 61.087 C 76.300 60.375,77.291 59.108,77.952 58.271 C 78.613 57.435,79.268 56.600,79.408 56.417 C 79.549 56.233,80.227 55.383,80.915 54.527 C 82.448 52.622,82.449 52.557,80.977 50.984 C 80.669 50.655,80.267 50.172,80.083 49.912 C 79.900 49.651,79.600 49.266,79.417 49.056 C 79.233 48.846,78.896 48.406,78.667 48.078 C 78.438 47.749,77.931 47.129,77.542 46.699 C 77.152 46.269,76.833 45.868,76.833 45.809 C 76.833 45.693,73.271 41.241,72.212 40.033 C 71.866 39.638,71.487 39.132,71.370 38.908 C 71.136 38.463,70.217 38.320,70.086 38.708 M227.938 39.022 C 227.584 39.209,227.152 39.325,226.979 39.280 C 226.578 39.175,225.276 39.534,224.423 39.984 C 224.060 40.176,223.677 40.333,223.572 40.333 C 223.010 40.333,220.000 43.666,220.000 44.288 C 220.000 44.381,219.842 44.814,219.649 45.250 C 218.843 47.074,219.313 49.966,220.776 52.176 C 221.554 53.352,224.687 55.500,225.625 55.500 C 225.790 55.500,226.054 55.650,226.211 55.833 C 226.368 56.017,226.690 56.167,226.926 56.167 C 227.162 56.167,227.519 56.255,227.719 56.362 C 228.182 56.611,229.914 56.986,230.632 56.994 C 230.933 56.997,231.474 57.150,231.833 57.333 C 232.193 57.517,232.743 57.667,233.056 57.667 C 233.370 57.667,233.716 57.775,233.826 57.908 C 233.936 58.041,234.281 58.234,234.593 58.336 C 236.801 59.065,237.184 61.967,235.237 63.219 C 232.470 64.998,228.447 63.732,227.668 60.837 C 227.569 60.469,227.321 59.849,227.117 59.459 L 226.746 58.750 225.106 58.702 C 223.952 58.668,223.389 58.718,223.208 58.869 C 223.039 59.009,222.186 59.112,220.733 59.167 C 219.411 59.216,218.440 59.326,218.327 59.439 C 218.077 59.690,218.611 62.405,219.033 63.026 C 219.198 63.269,219.333 63.610,219.333 63.784 C 219.333 64.436,221.357 66.930,222.531 67.724 C 223.826 68.601,226.318 69.466,226.961 69.263 C 227.120 69.212,227.475 69.320,227.750 69.501 C 228.414 69.939,235.531 70.014,236.093 69.589 C 236.271 69.454,236.717 69.339,237.083 69.333 C 237.952 69.319,240.040 68.579,240.667 68.063 C 240.805 67.949,241.124 67.749,241.376 67.619 C 241.848 67.373,243.667 65.728,243.667 65.545 C 243.667 65.489,243.770 65.325,243.895 65.180 C 244.377 64.625,245.184 62.966,245.339 62.208 C 245.898 59.491,245.898 59.497,245.371 57.080 C 245.219 56.382,244.458 54.958,243.983 54.483 C 243.832 54.332,243.680 54.143,243.646 54.063 C 243.280 53.210,239.439 51.074,237.667 50.739 C 237.346 50.678,236.986 50.549,236.866 50.453 C 236.642 50.272,235.702 50.069,234.255 49.888 C 233.799 49.831,233.325 49.683,233.201 49.559 C 233.068 49.425,232.609 49.333,232.071 49.333 C 231.389 49.333,231.085 49.251,230.833 49.000 C 230.650 48.817,230.303 48.667,230.061 48.667 C 229.109 48.667,228.000 47.644,228.000 46.765 C 228.000 43.826,234.415 43.725,235.348 46.649 C 235.810 48.097,238.132 48.712,240.334 47.971 C 240.655 47.863,241.704 47.732,242.667 47.679 L 244.417 47.583 244.468 46.965 C 244.496 46.625,244.443 46.100,244.350 45.798 C 243.938 44.465,243.530 43.476,243.275 43.195 C 243.124 43.027,243.000 42.811,243.000 42.714 C 243.000 42.412,240.809 40.472,240.181 40.219 C 239.852 40.087,239.265 39.834,238.877 39.656 C 238.488 39.479,237.866 39.333,237.495 39.333 C 237.124 39.333,236.526 39.183,236.167 39.000 C 235.171 38.492,228.911 38.509,227.938 39.022 M184.638 39.452 C 184.270 39.895,184.468 59.243,184.855 60.664 C 185.257 62.140,186.000 64.138,186.245 64.399 C 186.339 64.501,186.621 64.857,186.870 65.190 C 187.703 66.307,189.191 67.629,190.233 68.180 C 191.730 68.971,192.936 69.333,194.072 69.333 C 194.470 69.333,195.010 69.445,195.273 69.582 C 195.967 69.944,202.949 69.950,203.426 69.589 C 203.604 69.454,203.940 69.342,204.173 69.339 C 205.616 69.321,207.961 68.317,209.124 67.221 C 209.238 67.114,209.504 66.889,209.715 66.721 C 210.114 66.405,211.833 64.254,211.833 64.072 C 211.833 64.015,211.968 63.769,212.132 63.526 C 212.516 62.958,213.103 61.056,213.325 59.667 C 213.625 57.784,213.557 39.755,213.249 39.499 C 212.999 39.291,204.543 39.235,204.337 39.440 C 204.289 39.488,204.213 43.972,204.167 49.405 C 204.108 56.328,204.028 59.352,203.897 59.516 C 203.794 59.645,203.615 60.050,203.499 60.417 C 202.570 63.357,197.347 63.877,195.042 61.258 C 193.839 59.892,193.833 59.832,193.833 49.134 C 193.833 41.112,193.797 39.678,193.592 39.507 C 193.245 39.219,184.874 39.167,184.638 39.452 M250.658 39.408 C 250.407 39.660,250.448 68.881,250.700 69.133 C 251.036 69.469,266.163 69.413,267.499 69.070 C 268.064 68.926,268.639 68.851,268.778 68.904 C 268.917 68.958,269.241 68.851,269.499 68.667 C 269.757 68.484,270.169 68.333,270.415 68.333 C 271.675 68.333,276.167 64.712,276.167 63.697 C 276.167 63.603,276.343 63.314,276.558 63.054 C 276.773 62.795,277.002 62.358,277.066 62.083 C 277.130 61.808,277.324 61.208,277.497 60.750 C 278.689 57.590,278.568 50.832,277.254 47.246 C 276.308 44.664,274.802 42.608,272.995 41.432 C 272.585 41.166,272.055 40.815,271.816 40.654 C 271.577 40.492,271.071 40.276,270.691 40.173 C 270.311 40.071,270.000 39.915,270.000 39.827 C 270.000 39.739,269.658 39.667,269.239 39.667 C 268.821 39.667,268.334 39.590,268.159 39.496 C 267.738 39.270,250.880 39.186,250.658 39.408 M265.833 46.718 C 266.803 47.207,267.745 48.108,267.924 48.717 C 267.983 48.919,268.174 49.389,268.349 49.762 C 269.146 51.461,269.022 57.972,268.161 59.630 C 267.004 61.857,266.025 62.330,262.583 62.326 C 259.504 62.322,259.833 63.296,259.833 54.185 L 259.833 46.489 260.208 46.330 C 261.082 45.960,264.845 46.219,265.833 46.718 M110.038 47.333 C 109.796 47.559,109.450 47.667,108.965 47.667 C 108.545 47.668,108.025 47.805,107.704 48.001 C 107.404 48.184,107.064 48.333,106.949 48.333 C 105.569 48.333,102.599 51.548,101.470 54.264 L 100.922 55.583 100.920 58.583 C 100.918 61.188,100.959 61.671,101.234 62.250 C 101.408 62.617,101.807 63.469,102.120 64.143 C 102.795 65.599,104.944 67.892,106.167 68.460 C 107.592 69.122,108.213 69.335,108.648 69.311 C 108.887 69.298,109.308 69.409,109.583 69.559 C 110.306 69.953,116.433 69.963,117.189 69.572 C 117.467 69.428,118.157 69.236,118.722 69.146 C 119.288 69.055,119.998 68.835,120.301 68.657 C 120.604 68.479,120.956 68.333,121.083 68.333 C 121.383 68.333,124.271 65.500,124.500 64.982 C 124.596 64.763,124.861 64.328,125.088 64.017 C 125.774 63.074,125.570 62.955,123.226 62.932 C 121.994 62.920,121.637 62.858,121.363 62.610 C 121.068 62.343,120.789 62.311,119.220 62.361 L 117.417 62.420 116.416 63.122 C 114.216 64.665,110.893 64.091,109.875 61.992 C 109.031 60.250,108.632 60.333,117.827 60.333 C 127.165 60.333,126.262 60.586,126.081 58.021 C 125.966 56.378,125.897 55.988,125.422 54.250 C 125.056 52.909,123.891 51.085,122.815 50.167 C 122.331 49.754,121.759 49.248,121.543 49.042 C 121.328 48.835,121.111 48.667,121.062 48.667 C 121.013 48.667,120.460 48.442,119.833 48.167 C 119.130 47.858,118.412 47.667,117.956 47.667 C 117.430 47.667,117.132 47.571,116.917 47.333 C 116.636 47.023,116.403 47.000,113.506 47.000 C 110.627 47.000,110.370 47.025,110.038 47.333 M138.314 47.309 C 138.096 47.479,137.579 47.656,137.167 47.701 C 136.754 47.747,135.983 47.983,135.453 48.225 C 134.924 48.468,134.429 48.667,134.354 48.667 C 134.279 48.667,134.083 48.817,133.917 49.000 C 133.751 49.183,133.533 49.334,133.433 49.334 C 133.281 49.334,131.792 50.738,130.959 51.667 C 129.048 53.796,128.230 59.794,129.476 62.531 C 129.659 62.933,129.860 63.465,129.923 63.714 C 129.985 63.963,130.098 64.167,130.174 64.167 C 130.249 64.167,130.356 64.308,130.411 64.481 C 130.465 64.653,130.741 65.047,131.023 65.356 C 132.162 66.601,133.068 67.500,133.186 67.500 C 133.254 67.500,133.412 67.602,133.536 67.727 C 133.939 68.129,136.227 69.146,137.000 69.266 C 137.412 69.330,137.898 69.484,138.079 69.608 C 138.670 70.013,144.007 69.921,144.850 69.491 C 145.219 69.303,145.647 69.166,145.802 69.186 C 147.975 69.474,153.295 64.662,153.339 62.370 C 153.342 62.212,153.489 61.671,153.667 61.167 C 154.545 58.669,153.817 54.647,151.957 51.725 C 150.804 49.913,147.264 47.670,145.552 47.666 C 145.294 47.665,144.858 47.515,144.583 47.333 C 143.851 46.849,138.931 46.830,138.314 47.309 M164.331 47.308 C 164.011 47.477,163.375 47.659,162.917 47.712 C 161.396 47.888,159.700 48.965,158.294 50.649 C 157.370 51.756,157.089 54.263,157.708 55.888 C 158.084 56.874,159.961 59.167,160.393 59.167 C 160.500 59.167,160.887 59.329,161.252 59.528 C 161.929 59.897,162.824 60.126,164.167 60.273 C 164.579 60.319,165.153 60.463,165.442 60.595 C 165.731 60.726,166.431 60.833,166.999 60.833 C 167.778 60.833,168.134 60.915,168.455 61.167 C 168.755 61.403,169.131 61.500,169.746 61.500 C 170.696 61.500,171.710 62.154,172.018 62.964 C 172.175 63.377,171.512 64.496,171.105 64.504 C 171.002 64.506,170.729 64.654,170.500 64.833 C 169.948 65.265,167.501 65.319,167.159 64.907 C 167.040 64.764,166.699 64.546,166.401 64.421 C 166.103 64.296,165.727 63.982,165.566 63.722 C 164.761 62.426,164.580 62.333,162.857 62.333 C 161.616 62.333,161.210 62.393,160.969 62.611 C 160.728 62.830,160.251 62.899,158.731 62.938 C 156.342 62.999,156.195 63.088,156.755 64.140 C 156.981 64.566,157.168 64.990,157.170 65.082 C 157.194 66.452,160.704 69.034,162.881 69.283 C 163.359 69.338,163.898 69.484,164.079 69.608 C 164.586 69.956,172.043 69.934,172.333 69.583 C 172.447 69.446,172.723 69.333,172.947 69.333 C 173.596 69.333,174.881 68.974,175.333 68.666 C 175.563 68.510,175.940 68.336,176.172 68.280 C 176.561 68.186,178.060 66.864,178.683 66.064 C 179.659 64.811,180.194 61.445,179.547 60.631 C 179.453 60.513,179.292 60.154,179.187 59.833 C 178.849 58.792,177.050 57.203,175.710 56.762 C 175.230 56.604,174.794 56.405,174.742 56.321 C 174.690 56.236,174.249 56.167,173.763 56.167 C 173.131 56.167,172.757 56.072,172.455 55.833 C 172.101 55.555,171.778 55.500,170.507 55.500 C 169.484 55.500,168.826 55.419,168.504 55.252 C 168.203 55.096,167.828 55.043,167.500 55.108 C 166.240 55.360,164.515 53.928,165.066 53.087 C 165.778 52.000,168.617 51.246,169.094 52.017 C 169.156 52.118,169.461 52.307,169.770 52.436 C 170.080 52.565,170.502 52.929,170.708 53.245 C 171.255 54.081,174.323 54.315,175.408 53.604 C 175.667 53.435,176.079 53.390,176.844 53.449 C 178.276 53.559,179.578 52.967,178.877 52.525 C 178.783 52.465,178.445 51.929,178.126 51.333 C 177.152 49.514,174.955 47.861,173.299 47.701 C 172.820 47.655,172.404 47.504,172.231 47.313 C 171.805 46.842,165.218 46.837,164.331 47.308 M305.000 47.333 C 304.755 47.525,304.321 47.661,303.945 47.663 C 302.268 47.673,297.500 50.934,297.500 52.071 C 297.500 52.158,297.364 52.383,297.198 52.573 C 295.867 54.087,295.418 60.708,296.487 63.056 C 296.678 63.473,296.835 63.875,296.836 63.949 C 296.872 65.544,301.371 68.945,303.872 69.268 C 304.355 69.330,304.898 69.483,305.079 69.607 C 305.583 69.954,312.377 69.933,312.726 69.583 C 312.864 69.446,313.150 69.333,313.363 69.332 C 315.060 69.324,318.705 66.977,319.504 65.379 C 319.631 65.125,319.860 64.767,320.012 64.583 C 320.165 64.400,320.343 64.025,320.408 63.750 C 320.473 63.475,320.648 63.114,320.798 62.949 C 321.159 62.548,320.886 62.103,320.233 62.027 C 319.967 61.996,319.649 61.887,319.525 61.785 C 319.402 61.683,318.405 61.548,317.310 61.486 C 315.930 61.407,315.232 61.297,315.035 61.126 C 314.268 60.464,313.124 60.713,312.743 61.625 C 312.515 62.172,312.245 62.480,311.368 63.195 C 310.087 64.240,307.419 64.269,306.235 63.251 C 305.968 63.022,305.701 62.834,305.641 62.834 C 305.581 62.833,305.281 62.402,304.974 61.875 L 304.417 60.917 304.417 58.583 C 304.417 56.278,304.423 56.239,304.936 55.333 C 306.586 52.423,310.568 52.073,312.297 54.686 C 312.886 55.575,313.659 55.768,314.781 55.307 C 315.039 55.201,315.850 55.106,316.583 55.097 C 317.761 55.082,318.404 54.973,320.000 54.518 C 320.498 54.376,320.516 53.543,320.036 52.837 C 319.879 52.606,319.675 52.247,319.583 52.040 C 319.294 51.386,317.776 49.713,317.138 49.346 C 316.801 49.152,316.501 48.928,316.471 48.849 C 316.369 48.580,313.967 47.667,313.358 47.666 C 313.023 47.665,312.525 47.515,312.250 47.333 C 311.495 46.834,305.639 46.834,305.000 47.333 M333.314 47.308 C 333.096 47.477,332.529 47.661,332.055 47.715 C 331.581 47.770,330.814 48.006,330.352 48.241 C 329.889 48.475,329.434 48.667,329.341 48.667 C 328.909 48.667,326.281 51.180,325.591 52.254 C 323.761 55.100,323.252 60.277,324.556 62.783 C 324.708 63.077,324.833 63.418,324.833 63.542 C 324.833 63.763,325.671 64.994,326.167 65.503 C 326.304 65.643,326.604 65.982,326.833 66.256 C 327.433 66.970,329.152 68.333,329.454 68.333 C 329.595 68.333,329.955 68.484,330.253 68.668 C 330.551 68.853,331.235 69.090,331.772 69.195 C 332.310 69.300,332.898 69.487,333.079 69.610 C 333.562 69.938,339.124 69.928,339.595 69.598 C 339.780 69.469,340.373 69.281,340.913 69.182 C 341.453 69.082,342.205 68.850,342.583 68.667 C 342.962 68.483,343.325 68.333,343.390 68.333 C 343.985 68.333,347.665 64.561,347.668 63.947 C 347.668 63.839,347.789 63.525,347.935 63.250 C 348.715 61.786,349.166 58.664,348.850 56.917 C 348.457 54.746,348.323 54.311,347.633 52.972 C 346.248 50.286,342.746 47.667,340.539 47.667 C 340.222 47.667,339.782 47.519,339.545 47.333 C 338.926 46.846,333.936 46.826,333.314 47.308 M365.902 47.306 C 365.721 47.474,365.278 47.659,364.917 47.718 C 364.290 47.819,362.136 49.136,361.872 49.578 C 361.805 49.691,361.544 49.833,361.292 49.895 L 360.833 50.006 360.833 49.009 C 360.833 48.194,360.775 47.980,360.511 47.839 C 359.986 47.558,353.420 47.611,353.182 47.898 C 352.914 48.221,352.922 68.788,353.190 69.111 C 353.451 69.426,360.874 69.436,361.135 69.121 C 361.250 68.983,361.330 66.703,361.364 62.580 L 361.417 56.250 361.917 55.343 C 363.163 53.084,365.347 52.763,366.775 54.629 L 367.250 55.250 367.297 62.059 C 367.335 67.617,367.387 68.911,367.577 69.101 C 367.967 69.491,375.301 69.437,375.601 69.042 C 375.776 68.812,375.824 67.443,375.828 62.562 L 375.833 56.374 376.251 55.462 C 376.704 54.472,376.909 54.252,377.911 53.680 C 379.067 53.019,380.496 53.515,381.311 54.860 L 381.750 55.583 381.795 62.245 C 381.824 66.538,381.900 68.967,382.011 69.078 C 382.210 69.277,389.408 69.322,389.882 69.127 C 390.403 68.914,390.231 52.990,389.694 51.601 C 388.944 49.665,386.896 47.667,385.660 47.667 C 385.417 47.667,385.083 47.517,384.917 47.333 C 384.479 46.849,380.763 46.831,380.147 47.309 C 379.929 47.479,379.453 47.673,379.091 47.740 C 378.728 47.807,378.227 48.024,377.976 48.222 C 377.726 48.421,377.162 48.846,376.724 49.167 C 376.286 49.487,375.792 49.883,375.627 50.045 C 375.237 50.428,375.024 50.311,373.630 48.944 C 372.913 48.241,372.338 47.824,371.974 47.744 C 371.667 47.677,371.155 47.482,370.836 47.311 C 369.987 46.856,366.388 46.852,365.902 47.306 M116.026 53.604 C 116.995 54.301,117.676 55.626,117.232 55.950 C 116.803 56.264,109.786 56.262,109.526 55.948 C 109.074 55.404,110.648 53.527,111.885 53.134 C 112.932 52.801,115.280 53.068,116.026 53.604 M143.417 53.561 C 145.312 54.866,146.055 58.037,145.158 60.990 C 144.047 64.647,139.595 65.081,137.884 61.700 C 137.146 60.242,137.201 56.511,137.980 55.138 C 139.162 53.056,141.640 52.338,143.417 53.561 M337.939 53.272 C 338.473 53.525,339.101 54.067,339.652 54.752 C 341.101 56.550,340.571 61.774,338.800 63.154 C 335.650 65.609,332.442 63.266,332.427 58.500 L 332.419 56.083 332.952 55.167 C 334.077 53.231,336.174 52.434,337.939 53.272 M283.094 60.921 C 282.544 61.196,282.471 68.597,283.014 69.042 C 283.568 69.495,290.979 69.483,291.391 69.029 C 291.807 68.569,291.809 61.090,291.393 60.930 C 290.909 60.745,283.464 60.737,283.094 60.921 " stroke="none" fill="#616160" fill-rule="evenodd"></path><path id="path1" d="M0.000 51.583 L 0.000 103.167 200.000 103.167 L 400.000 103.167 400.000 51.583 L 400.000 0.000 200.000 0.000 L 0.000 0.000 0.000 51.583 M50.015 11.807 C 50.511 12.435,51.067 13.158,51.250 13.416 C 51.433 13.673,51.696 14.004,51.833 14.151 C 51.971 14.298,52.634 15.152,53.308 16.048 C 53.981 16.945,54.919 18.155,55.391 18.739 C 55.863 19.322,56.400 20.008,56.583 20.263 C 56.767 20.518,57.368 21.294,57.919 21.988 C 58.470 22.682,59.121 23.512,59.365 23.833 C 59.610 24.154,59.984 24.619,60.196 24.866 C 60.409 25.112,60.921 25.783,61.333 26.357 C 62.118 27.447,62.759 28.259,63.797 29.478 C 64.138 29.879,64.486 30.329,64.570 30.478 C 64.655 30.628,65.030 31.137,65.404 31.609 C 65.777 32.082,66.246 32.682,66.444 32.943 C 66.643 33.203,66.961 33.597,67.152 33.817 C 67.344 34.037,67.500 34.266,67.500 34.324 C 67.500 34.383,67.835 34.800,68.244 35.252 C 69.034 36.125,69.069 36.357,68.560 37.367 C 68.435 37.614,68.333 37.955,68.333 38.123 C 68.333 38.292,68.188 38.715,68.010 39.064 C 67.832 39.414,67.637 39.936,67.577 40.225 C 67.516 40.514,67.365 40.912,67.240 41.110 C 67.115 41.307,66.925 41.817,66.818 42.242 C 66.711 42.666,66.483 43.289,66.312 43.626 C 66.140 43.962,66.000 44.419,66.000 44.641 C 66.000 44.862,65.858 45.278,65.685 45.564 C 65.511 45.849,65.315 46.346,65.248 46.667 C 65.181 46.987,64.985 47.528,64.813 47.868 C 64.641 48.208,64.500 48.661,64.500 48.873 C 64.500 49.085,64.387 49.420,64.249 49.617 C 64.019 49.946,63.869 50.348,63.082 52.750 C 62.931 53.208,62.735 53.721,62.644 53.889 C 62.468 54.216,61.756 56.205,61.471 57.167 C 61.375 57.487,61.214 57.900,61.112 58.083 C 61.009 58.267,60.836 58.717,60.726 59.083 C 60.616 59.450,60.289 60.387,60.001 61.167 C 59.712 61.946,59.378 62.921,59.260 63.333 C 59.141 63.746,58.925 64.308,58.780 64.583 C 58.511 65.095,58.153 66.123,57.741 67.561 C 57.613 68.007,57.438 68.457,57.352 68.561 C 57.266 68.665,56.892 69.650,56.521 70.750 C 55.619 73.423,55.100 74.841,54.863 75.281 C 54.755 75.481,54.667 75.766,54.667 75.914 C 54.667 76.062,54.522 76.482,54.345 76.849 C 54.168 77.215,53.971 77.755,53.906 78.049 C 53.842 78.343,53.649 78.845,53.478 79.164 C 53.307 79.484,53.167 79.878,53.167 80.041 C 53.167 80.204,53.021 80.655,52.843 81.043 C 52.665 81.432,52.434 82.081,52.330 82.485 C 52.225 82.889,52.040 83.377,51.919 83.568 C 51.798 83.760,51.650 84.153,51.590 84.442 C 51.530 84.731,51.335 85.253,51.157 85.602 C 50.979 85.951,50.833 86.416,50.833 86.635 C 50.833 86.853,50.694 87.231,50.525 87.474 C 50.355 87.718,50.168 88.166,50.110 88.472 C 50.051 88.777,49.887 89.271,49.745 89.570 C 49.603 89.869,49.396 90.476,49.285 90.919 C 48.965 92.195,48.161 91.947,47.916 90.496 C 47.850 90.108,47.663 89.556,47.500 89.270 C 47.337 88.984,47.152 88.458,47.090 88.101 C 47.027 87.743,46.876 87.293,46.754 87.101 C 46.632 86.908,46.479 86.487,46.413 86.167 C 46.347 85.846,46.162 85.321,46.002 85.000 C 45.842 84.679,45.658 84.117,45.592 83.750 C 45.526 83.383,45.375 82.971,45.257 82.833 C 45.139 82.696,44.946 82.171,44.829 81.667 C 44.712 81.162,44.522 80.600,44.408 80.417 C 44.293 80.233,44.146 79.827,44.080 79.514 C 44.015 79.201,43.820 78.713,43.648 78.431 C 43.476 78.148,43.334 77.744,43.334 77.533 C 43.334 77.323,43.214 76.919,43.068 76.637 C 42.922 76.355,42.689 75.740,42.551 75.270 C 42.413 74.801,42.235 74.337,42.156 74.240 C 42.077 74.144,41.903 73.646,41.770 73.134 C 41.637 72.623,41.409 71.975,41.264 71.694 C 41.119 71.413,41.000 71.027,41.000 70.835 C 41.000 70.643,40.859 70.208,40.687 69.868 C 40.515 69.528,40.323 69.014,40.261 68.725 C 40.198 68.436,40.002 67.914,39.824 67.564 C 39.646 67.215,39.500 66.792,39.500 66.623 C 39.500 66.455,39.381 66.087,39.236 65.806 C 39.091 65.525,38.866 64.890,38.737 64.393 C 38.608 63.897,38.396 63.324,38.267 63.121 C 38.138 62.917,37.981 62.501,37.917 62.197 C 37.854 61.893,37.697 61.443,37.569 61.197 C 37.440 60.951,37.286 60.487,37.226 60.167 C 37.166 59.846,37.014 59.426,36.888 59.233 C 36.763 59.040,36.555 58.515,36.426 58.066 C 36.002 56.589,35.483 55.091,35.240 54.641 C 35.108 54.398,35.000 54.071,35.000 53.916 C 35.000 53.761,34.890 53.397,34.755 53.109 C 34.620 52.820,34.362 52.133,34.182 51.583 C 33.496 49.487,33.283 48.896,32.980 48.239 C 32.808 47.866,32.667 47.432,32.667 47.274 C 32.667 47.116,32.526 46.708,32.354 46.368 C 32.182 46.028,31.984 45.487,31.915 45.167 C 31.846 44.846,31.649 44.322,31.478 44.002 C 31.307 43.683,31.164 43.270,31.161 43.086 C 31.158 42.901,31.010 42.450,30.833 42.083 C 30.656 41.717,30.508 41.304,30.504 41.167 C 30.500 41.029,30.310 40.515,30.082 40.025 C 29.853 39.535,29.666 38.972,29.666 38.775 C 29.666 38.578,29.524 38.185,29.352 37.903 C 28.598 36.667,28.730 35.701,29.816 34.500 C 30.905 33.295,31.230 32.912,31.583 32.410 C 31.767 32.150,32.592 31.092,33.417 30.059 C 34.242 29.026,35.479 27.462,36.167 26.583 C 37.356 25.061,37.587 24.770,38.167 24.052 C 38.304 23.882,38.745 23.313,39.145 22.788 C 39.546 22.263,39.940 21.833,40.020 21.833 C 40.101 21.833,40.167 21.749,40.167 21.647 C 40.167 21.545,40.373 21.222,40.625 20.931 C 40.877 20.639,41.233 20.190,41.417 19.933 C 41.600 19.675,41.914 19.266,42.114 19.024 C 42.534 18.515,45.605 14.666,45.792 14.415 C 45.860 14.322,46.198 13.897,46.542 13.470 C 46.885 13.043,47.167 12.640,47.167 12.574 C 47.167 12.509,47.335 12.292,47.542 12.093 C 47.748 11.895,48.123 11.492,48.376 11.199 C 48.984 10.495,48.976 10.492,50.015 11.807 M27.459 38.958 C 27.921 39.996,28.461 41.543,28.726 42.583 C 28.842 43.042,29.058 43.604,29.206 43.833 C 29.354 44.063,29.530 44.550,29.596 44.917 C 29.663 45.283,29.811 45.733,29.925 45.917 C 30.040 46.100,30.189 46.512,30.256 46.833 C 30.323 47.154,30.518 47.678,30.689 47.998 C 30.860 48.317,31.000 48.732,31.000 48.921 C 31.000 49.109,31.146 49.549,31.324 49.898 C 31.502 50.247,31.698 50.769,31.759 51.058 C 31.821 51.347,32.013 51.898,32.186 52.283 C 32.358 52.667,32.502 53.080,32.505 53.199 C 32.508 53.319,32.695 53.792,32.920 54.250 C 33.146 54.708,33.331 55.256,33.332 55.467 C 33.333 55.677,33.453 56.081,33.599 56.363 C 33.745 56.645,33.978 57.259,34.117 57.727 C 34.256 58.196,34.474 58.728,34.601 58.910 C 34.729 59.092,34.833 59.459,34.833 59.726 C 34.833 59.992,34.975 60.445,35.149 60.730 C 35.323 61.016,35.516 61.567,35.580 61.953 C 35.643 62.340,35.827 62.828,35.989 63.037 C 36.151 63.246,36.334 63.741,36.395 64.137 C 36.457 64.533,36.611 65.020,36.737 65.220 C 36.864 65.420,37.021 65.846,37.087 66.167 C 37.153 66.487,37.348 67.028,37.520 67.368 C 37.692 67.708,37.834 68.121,37.835 68.285 C 37.836 68.449,38.021 68.958,38.246 69.417 C 38.472 69.875,38.659 70.385,38.661 70.551 C 38.664 70.716,38.819 71.185,39.004 71.592 C 39.190 72.000,39.389 72.577,39.447 72.875 C 39.504 73.173,39.690 73.596,39.859 73.814 C 40.028 74.033,40.167 74.429,40.167 74.696 C 40.167 74.962,40.310 75.462,40.486 75.806 C 40.662 76.150,40.860 76.729,40.927 77.091 C 40.994 77.453,41.187 77.929,41.357 78.147 C 41.528 78.366,41.667 78.779,41.667 79.064 C 41.668 79.350,41.806 79.810,41.975 80.087 C 42.144 80.364,42.336 80.880,42.403 81.234 C 42.469 81.589,42.668 82.149,42.845 82.478 C 43.022 82.808,43.167 83.195,43.167 83.337 C 43.167 83.480,43.308 83.874,43.481 84.213 C 43.654 84.552,43.848 85.109,43.912 85.451 C 43.976 85.792,44.142 86.290,44.280 86.557 C 44.418 86.824,44.644 87.427,44.783 87.896 C 44.923 88.366,45.104 88.792,45.186 88.844 C 45.397 88.976,45.452 90.143,45.250 90.181 C 45.158 90.199,45.008 90.070,44.917 89.895 C 44.825 89.720,44.600 89.415,44.417 89.217 C 43.912 88.672,43.732 88.433,43.502 88.004 C 43.387 87.788,42.963 87.268,42.561 86.849 C 42.159 86.429,41.788 85.954,41.737 85.793 C 41.686 85.632,41.586 85.500,41.516 85.500 C 41.445 85.500,41.293 85.294,41.178 85.042 C 41.064 84.790,40.863 84.471,40.732 84.333 C 40.439 84.026,38.872 82.064,38.417 81.435 C 38.027 80.897,35.967 78.262,35.488 77.689 C 35.306 77.473,35.079 77.148,34.983 76.968 C 34.811 76.647,34.654 76.445,34.009 75.717 C 33.830 75.516,33.411 74.953,33.077 74.467 C 32.744 73.981,32.365 73.523,32.235 73.450 C 32.106 73.377,32.000 73.236,32.000 73.137 C 32.000 73.038,31.475 72.334,30.833 71.572 C 30.192 70.810,29.667 70.110,29.667 70.016 C 29.667 69.922,29.517 69.765,29.333 69.667 C 29.150 69.569,29.000 69.407,29.000 69.308 C 29.000 69.209,28.794 68.877,28.542 68.572 C 28.290 68.266,27.953 67.844,27.794 67.633 C 27.005 66.586,26.460 65.911,26.343 65.835 C 26.271 65.788,26.096 65.525,25.954 65.250 C 25.811 64.975,25.428 64.487,25.102 64.167 C 24.777 63.846,24.508 63.503,24.505 63.405 C 24.502 63.307,24.331 63.070,24.125 62.879 C 23.919 62.688,23.563 62.259,23.333 61.925 C 22.839 61.205,21.435 59.355,21.113 59.000 C 20.988 58.862,20.746 58.506,20.574 58.208 C 20.402 57.910,20.209 57.667,20.145 57.667 C 20.081 57.667,19.798 57.348,19.516 56.958 C 19.234 56.569,18.887 56.100,18.746 55.917 C 18.604 55.733,18.262 55.283,17.986 54.917 C 17.078 53.714,16.754 53.314,16.458 53.035 C 15.999 52.601,16.113 52.083,16.833 51.333 C 17.200 50.952,17.500 50.582,17.500 50.512 C 17.500 50.442,17.689 50.167,17.920 49.901 C 18.151 49.635,18.542 49.117,18.789 48.750 C 19.036 48.383,19.354 47.962,19.494 47.814 C 19.795 47.496,20.211 46.974,21.335 45.500 C 21.789 44.904,22.312 44.264,22.497 44.077 C 22.682 43.891,22.833 43.676,22.833 43.599 C 22.833 43.479,23.140 43.078,24.054 42.000 C 24.171 41.862,24.386 41.563,24.534 41.333 C 24.681 41.104,25.071 40.635,25.400 40.291 C 25.730 39.947,26.000 39.603,26.000 39.526 C 26.000 39.448,26.187 39.167,26.416 38.901 C 26.646 38.635,26.833 38.360,26.833 38.292 C 26.834 37.926,27.150 38.263,27.459 38.958 M71.370 38.908 C 71.487 39.132,71.866 39.638,72.212 40.033 C 73.271 41.241,76.833 45.693,76.833 45.809 C 76.833 45.868,77.152 46.269,77.542 46.699 C 77.931 47.129,78.438 47.749,78.667 48.078 C 78.896 48.406,79.233 48.846,79.417 49.056 C 79.600 49.266,79.900 49.651,80.083 49.912 C 80.267 50.172,80.669 50.655,80.977 50.984 C 82.449 52.557,82.448 52.622,80.915 54.527 C 80.227 55.383,79.549 56.233,79.408 56.417 C 79.268 56.600,78.613 57.435,77.952 58.271 C 77.291 59.108,76.300 60.375,75.750 61.087 C 75.200 61.799,74.506 62.648,74.208 62.974 C 73.910 63.299,73.498 63.790,73.291 64.065 C 73.085 64.340,72.560 64.997,72.125 65.525 C 71.690 66.053,71.333 66.556,71.333 66.642 C 71.333 66.727,71.227 66.838,71.098 66.888 C 70.968 66.938,70.762 67.166,70.639 67.394 C 70.517 67.623,69.629 68.777,68.667 69.958 C 67.704 71.140,66.734 72.349,66.511 72.644 C 66.289 72.939,65.914 73.390,65.678 73.647 C 65.443 73.903,65.100 74.326,64.917 74.587 C 64.487 75.197,62.355 77.869,61.544 78.813 C 61.199 79.215,60.848 79.665,60.764 79.813 C 60.680 79.962,60.324 80.383,59.973 80.748 C 59.621 81.114,59.333 81.494,59.333 81.593 C 59.333 81.692,59.165 81.930,58.958 82.121 C 58.752 82.312,58.396 82.742,58.167 83.078 C 57.938 83.414,57.525 83.937,57.250 84.241 C 56.975 84.545,56.450 85.181,56.083 85.654 C 55.717 86.126,54.742 87.372,53.917 88.422 C 53.092 89.472,52.292 90.501,52.139 90.707 C 51.447 91.646,51.323 90.221,51.989 88.978 C 52.165 88.648,52.361 88.105,52.424 87.771 C 52.486 87.436,52.599 87.125,52.675 87.078 C 52.750 87.032,52.933 86.564,53.082 86.039 C 53.230 85.513,53.460 84.847,53.593 84.558 C 53.725 84.269,53.834 83.932,53.835 83.808 C 53.836 83.684,54.021 83.208,54.246 82.750 C 54.472 82.292,54.659 81.782,54.661 81.618 C 54.664 81.454,54.817 81.026,55.000 80.667 C 55.183 80.307,55.334 79.879,55.334 79.715 C 55.335 79.551,55.455 79.192,55.601 78.917 C 55.886 78.379,56.534 76.582,56.910 75.282 C 57.037 74.842,57.224 74.382,57.325 74.260 C 57.426 74.138,57.614 73.674,57.742 73.228 C 58.107 71.958,58.650 70.459,58.920 69.974 C 59.056 69.731,59.167 69.355,59.167 69.138 C 59.167 68.922,59.305 68.484,59.474 68.164 C 59.644 67.845,59.837 67.361,59.903 67.089 C 59.970 66.817,60.162 66.292,60.330 65.922 C 60.499 65.553,60.689 64.968,60.754 64.623 C 60.818 64.278,60.935 63.957,61.014 63.908 C 61.092 63.860,61.311 63.301,61.500 62.667 C 61.689 62.032,61.916 61.468,62.005 61.414 C 62.094 61.359,62.167 61.149,62.168 60.948 C 62.169 60.748,62.357 60.182,62.585 59.692 C 62.813 59.201,63.000 58.675,63.000 58.523 C 63.000 58.370,63.145 57.975,63.322 57.645 C 63.498 57.315,63.697 56.754,63.762 56.398 C 63.828 56.041,64.021 55.571,64.191 55.353 C 64.361 55.134,64.500 54.777,64.500 54.559 C 64.500 54.341,64.646 53.845,64.823 53.457 C 65.001 53.068,65.234 52.415,65.340 52.005 C 65.446 51.595,65.638 51.110,65.766 50.926 C 65.895 50.743,66.000 50.403,66.001 50.171 C 66.001 49.940,66.137 49.525,66.303 49.250 C 66.469 48.975,66.705 48.375,66.828 47.917 C 66.951 47.458,67.107 47.008,67.175 46.917 C 67.243 46.825,67.395 46.413,67.512 46.000 C 67.629 45.587,67.787 45.167,67.863 45.065 C 67.939 44.964,68.301 43.959,68.667 42.833 C 69.032 41.707,69.400 40.703,69.483 40.601 C 69.566 40.500,69.720 40.079,69.825 39.667 C 70.121 38.506,70.126 38.500,70.656 38.500 C 71.017 38.500,71.215 38.613,71.370 38.908 M236.167 39.000 C 236.526 39.183,237.124 39.333,237.495 39.333 C 237.866 39.333,238.488 39.479,238.877 39.656 C 239.265 39.834,239.852 40.087,240.181 40.219 C 240.809 40.472,243.000 42.412,243.000 42.714 C 243.000 42.811,243.124 43.027,243.275 43.195 C 243.530 43.476,243.938 44.465,244.350 45.798 C 244.443 46.100,244.496 46.625,244.468 46.965 L 244.417 47.583 242.667 47.679 C 241.704 47.732,240.655 47.863,240.334 47.971 C 238.132 48.712,235.810 48.097,235.348 46.649 C 234.415 43.725,228.000 43.826,228.000 46.765 C 228.000 47.644,229.109 48.667,230.061 48.667 C 230.303 48.667,230.650 48.817,230.833 49.000 C 231.085 49.251,231.389 49.333,232.071 49.333 C 232.609 49.333,233.068 49.425,233.201 49.559 C 233.325 49.683,233.799 49.831,234.255 49.888 C 235.702 50.069,236.642 50.272,236.866 50.453 C 236.986 50.549,237.346 50.678,237.667 50.739 C 239.439 51.074,243.280 53.210,243.646 54.063 C 243.680 54.143,243.832 54.332,243.983 54.483 C 244.458 54.958,245.219 56.382,245.371 57.080 C 245.898 59.497,245.898 59.491,245.339 62.208 C 245.184 62.966,244.377 64.625,243.895 65.180 C 243.770 65.325,243.667 65.489,243.667 65.545 C 243.667 65.728,241.848 67.373,241.376 67.619 C 241.124 67.749,240.805 67.949,240.667 68.063 C 240.040 68.579,237.952 69.319,237.083 69.333 C 236.717 69.339,236.271 69.454,236.093 69.589 C 235.531 70.014,228.414 69.939,227.750 69.501 C 227.475 69.320,227.120 69.212,226.961 69.263 C 226.318 69.466,223.826 68.601,222.531 67.724 C 221.357 66.930,219.333 64.436,219.333 63.784 C 219.333 63.610,219.198 63.269,219.033 63.026 C 218.611 62.405,218.077 59.690,218.327 59.439 C 218.440 59.326,219.411 59.216,220.733 59.167 C 222.186 59.112,223.039 59.009,223.208 58.869 C 223.389 58.718,223.952 58.668,225.106 58.702 L 226.746 58.750 227.117 59.459 C 227.321 59.849,227.569 60.469,227.668 60.837 C 228.447 63.732,232.470 64.998,235.237 63.219 C 237.184 61.967,236.801 59.065,234.593 58.336 C 234.281 58.234,233.936 58.041,233.826 57.908 C 233.716 57.775,233.370 57.667,233.056 57.667 C 232.743 57.667,232.193 57.517,231.833 57.333 C 231.474 57.150,230.933 56.997,230.632 56.994 C 229.914 56.986,228.182 56.611,227.719 56.362 C 227.519 56.255,227.162 56.167,226.926 56.167 C 226.690 56.167,226.368 56.017,226.211 55.833 C 226.054 55.650,225.790 55.500,225.625 55.500 C 224.687 55.500,221.554 53.352,220.776 52.176 C 219.313 49.966,218.843 47.074,219.649 45.250 C 219.842 44.814,220.000 44.381,220.000 44.288 C 220.000 43.666,223.010 40.333,223.572 40.333 C 223.677 40.333,224.060 40.176,224.423 39.984 C 225.276 39.534,226.578 39.175,226.979 39.280 C 227.152 39.325,227.584 39.209,227.938 39.022 C 228.911 38.509,235.171 38.492,236.167 39.000 M193.592 39.507 C 193.797 39.678,193.833 41.112,193.833 49.134 C 193.833 59.832,193.839 59.892,195.042 61.258 C 197.347 63.877,202.570 63.357,203.499 60.417 C 203.615 60.050,203.794 59.645,203.897 59.516 C 204.028 59.352,204.108 56.328,204.167 49.405 C 204.213 43.972,204.289 39.488,204.337 39.440 C 204.543 39.235,212.999 39.291,213.249 39.499 C 213.557 39.755,213.625 57.784,213.325 59.667 C 213.103 61.056,212.516 62.958,212.132 63.526 C 211.968 63.769,211.833 64.015,211.833 64.072 C 211.833 64.254,210.114 66.405,209.715 66.721 C 209.504 66.889,209.238 67.114,209.124 67.221 C 207.961 68.317,205.616 69.321,204.173 69.339 C 203.940 69.342,203.604 69.454,203.426 69.589 C 202.949 69.950,195.967 69.944,195.273 69.582 C 195.010 69.445,194.470 69.333,194.072 69.333 C 192.936 69.333,191.730 68.971,190.233 68.180 C 189.191 67.629,187.703 66.307,186.870 65.190 C 186.621 64.857,186.339 64.501,186.245 64.399 C 186.000 64.138,185.257 62.140,184.855 60.664 C 184.468 59.243,184.270 39.895,184.638 39.452 C 184.874 39.167,193.245 39.219,193.592 39.507 M268.159 39.496 C 268.334 39.590,268.821 39.667,269.239 39.667 C 269.658 39.667,270.000 39.739,270.000 39.827 C 270.000 39.915,270.311 40.071,270.691 40.173 C 271.071 40.276,271.577 40.492,271.816 40.654 C 272.055 40.815,272.585 41.166,272.995 41.432 C 274.802 42.608,276.308 44.664,277.254 47.246 C 278.568 50.832,278.689 57.590,277.497 60.750 C 277.324 61.208,277.130 61.808,277.066 62.083 C 277.002 62.358,276.773 62.795,276.558 63.054 C 276.343 63.314,276.167 63.603,276.167 63.697 C 276.167 64.712,271.675 68.333,270.415 68.333 C 270.169 68.333,269.757 68.484,269.499 68.667 C 269.241 68.851,268.917 68.958,268.778 68.904 C 268.639 68.851,268.064 68.926,267.499 69.070 C 266.163 69.413,251.036 69.469,250.700 69.133 C 250.448 68.881,250.407 39.660,250.658 39.408 C 250.880 39.186,267.738 39.270,268.159 39.496 M260.208 46.330 L 259.833 46.489 259.833 54.185 C 259.833 63.296,259.504 62.322,262.583 62.326 C 266.025 62.330,267.004 61.857,268.161 59.630 C 269.022 57.972,269.146 51.461,268.349 49.762 C 268.174 49.389,267.983 48.919,267.924 48.717 C 267.745 48.108,266.803 47.207,265.833 46.718 C 264.845 46.219,261.082 45.960,260.208 46.330 M116.917 47.333 C 117.132 47.571,117.430 47.667,117.956 47.667 C 118.412 47.667,119.130 47.858,119.833 48.167 C 120.460 48.442,121.013 48.667,121.062 48.667 C 121.111 48.667,121.328 48.835,121.543 49.042 C 121.759 49.248,122.331 49.754,122.815 50.167 C 123.891 51.085,125.056 52.909,125.422 54.250 C 125.897 55.988,125.966 56.378,126.081 58.021 C 126.262 60.586,127.165 60.333,117.827 60.333 C 108.632 60.333,109.031 60.250,109.875 61.992 C 110.893 64.091,114.216 64.665,116.416 63.122 L 117.417 62.420 119.220 62.361 C 120.789 62.311,121.068 62.343,121.363 62.610 C 121.637 62.858,121.994 62.920,123.226 62.932 C 125.570 62.955,125.774 63.074,125.088 64.017 C 124.861 64.328,124.596 64.763,124.500 64.982 C 124.271 65.500,121.383 68.333,121.083 68.333 C 120.956 68.333,120.604 68.479,120.301 68.657 C 119.998 68.835,119.288 69.055,118.722 69.146 C 118.157 69.236,117.467 69.428,117.189 69.572 C 116.433 69.963,110.306 69.953,109.583 69.559 C 109.308 69.409,108.887 69.298,108.648 69.311 C 108.213 69.335,107.592 69.122,106.167 68.460 C 104.944 67.892,102.795 65.599,102.120 64.143 C 101.807 63.469,101.408 62.617,101.234 62.250 C 100.959 61.671,100.918 61.188,100.920 58.583 L 100.922 55.583 101.470 54.264 C 102.599 51.548,105.569 48.333,106.949 48.333 C 107.064 48.333,107.404 48.184,107.704 48.001 C 108.025 47.805,108.545 47.668,108.965 47.667 C 109.450 47.667,109.796 47.559,110.038 47.333 C 110.370 47.025,110.627 47.000,113.506 47.000 C 116.403 47.000,116.636 47.023,116.917 47.333 M144.583 47.333 C 144.858 47.515,145.294 47.665,145.552 47.666 C 150.614 47.677,155.533 55.861,153.667 61.167 C 153.489 61.671,153.342 62.212,153.339 62.370 C 153.295 64.662,147.975 69.474,145.802 69.186 C 145.647 69.166,145.219 69.303,144.850 69.491 C 144.007 69.921,138.670 70.013,138.079 69.608 C 137.898 69.484,137.412 69.330,137.000 69.266 C 136.227 69.146,133.939 68.129,133.536 67.727 C 133.412 67.602,133.254 67.500,133.186 67.500 C 133.068 67.500,132.162 66.601,131.023 65.356 C 130.741 65.047,130.465 64.653,130.411 64.481 C 130.356 64.308,130.249 64.167,130.174 64.167 C 130.098 64.167,129.985 63.963,129.923 63.714 C 129.860 63.465,129.659 62.933,129.476 62.531 C 128.230 59.794,129.048 53.796,130.959 51.667 C 131.792 50.738,133.281 49.334,133.433 49.334 C 133.533 49.334,133.751 49.183,133.917 49.000 C 134.083 48.817,134.279 48.667,134.354 48.667 C 134.429 48.667,134.924 48.468,135.453 48.225 C 135.983 47.983,136.754 47.747,137.167 47.701 C 137.579 47.656,138.096 47.479,138.314 47.309 C 138.931 46.830,143.851 46.849,144.583 47.333 M172.231 47.313 C 172.404 47.504,172.820 47.655,173.299 47.701 C 174.955 47.861,177.152 49.514,178.126 51.333 C 178.445 51.929,178.783 52.465,178.877 52.525 C 179.578 52.967,178.276 53.559,176.844 53.449 C 176.079 53.390,175.667 53.435,175.408 53.604 C 174.323 54.315,171.255 54.081,170.708 53.245 C 170.502 52.929,170.080 52.565,169.770 52.436 C 169.461 52.307,169.156 52.118,169.094 52.017 C 168.617 51.246,165.778 52.000,165.066 53.087 C 164.515 53.928,166.240 55.360,167.500 55.108 C 167.828 55.043,168.203 55.096,168.504 55.252 C 168.826 55.419,169.484 55.500,170.507 55.500 C 171.778 55.500,172.101 55.555,172.455 55.833 C 172.757 56.072,173.131 56.167,173.763 56.167 C 174.249 56.167,174.690 56.236,174.742 56.321 C 174.794 56.405,175.230 56.604,175.710 56.762 C 177.050 57.203,178.849 58.792,179.187 59.833 C 179.292 60.154,179.453 60.513,179.547 60.631 C 180.194 61.445,179.659 64.811,178.683 66.064 C 178.060 66.864,176.561 68.186,176.172 68.280 C 175.940 68.336,175.563 68.510,175.333 68.666 C 174.881 68.974,173.596 69.333,172.947 69.333 C 172.723 69.333,172.447 69.446,172.333 69.583 C 172.043 69.934,164.586 69.956,164.079 69.608 C 163.898 69.484,163.359 69.338,162.881 69.283 C 160.704 69.034,157.194 66.452,157.170 65.082 C 157.168 64.990,156.981 64.566,156.755 64.140 C 156.195 63.088,156.342 62.999,158.731 62.938 C 160.251 62.899,160.728 62.830,160.969 62.611 C 161.210 62.393,161.616 62.333,162.857 62.333 C 164.580 62.333,164.761 62.426,165.566 63.722 C 165.727 63.982,166.103 64.296,166.401 64.421 C 166.699 64.546,167.040 64.764,167.159 64.907 C 167.501 65.319,169.948 65.265,170.500 64.833 C 170.729 64.654,171.002 64.506,171.105 64.504 C 171.512 64.496,172.175 63.377,172.018 62.964 C 171.710 62.154,170.696 61.500,169.746 61.500 C 169.131 61.500,168.755 61.403,168.455 61.167 C 168.134 60.915,167.778 60.833,166.999 60.833 C 166.431 60.833,165.731 60.726,165.442 60.595 C 165.153 60.463,164.579 60.319,164.167 60.273 C 162.824 60.126,161.929 59.897,161.252 59.528 C 160.887 59.329,160.500 59.167,160.393 59.167 C 159.961 59.167,158.084 56.874,157.708 55.888 C 157.089 54.263,157.370 51.756,158.294 50.649 C 159.700 48.965,161.396 47.888,162.917 47.712 C 163.375 47.659,164.011 47.477,164.331 47.308 C 165.218 46.837,171.805 46.842,172.231 47.313 M312.250 47.333 C 312.525 47.515,313.023 47.665,313.358 47.666 C 313.967 47.667,316.369 48.580,316.471 48.849 C 316.501 48.928,316.801 49.152,317.138 49.346 C 317.776 49.713,319.294 51.386,319.583 52.040 C 319.675 52.247,319.879 52.606,320.036 52.837 C 320.516 53.543,320.498 54.376,320.000 54.518 C 318.404 54.973,317.761 55.082,316.583 55.097 C 315.850 55.106,315.039 55.201,314.781 55.307 C 313.659 55.768,312.886 55.575,312.297 54.686 C 310.568 52.073,306.586 52.423,304.936 55.333 C 304.423 56.239,304.417 56.278,304.417 58.583 L 304.417 60.917 304.974 61.875 C 305.281 62.402,305.581 62.833,305.641 62.834 C 305.701 62.834,305.968 63.022,306.235 63.251 C 307.419 64.269,310.087 64.240,311.368 63.195 C 312.245 62.480,312.515 62.172,312.743 61.625 C 313.124 60.713,314.268 60.464,315.035 61.126 C 315.232 61.297,315.930 61.407,317.310 61.486 C 318.405 61.548,319.402 61.683,319.525 61.785 C 319.649 61.887,319.967 61.996,320.233 62.027 C 320.886 62.103,321.159 62.548,320.798 62.949 C 320.648 63.114,320.473 63.475,320.408 63.750 C 320.343 64.025,320.165 64.400,320.012 64.583 C 319.860 64.767,319.631 65.125,319.504 65.379 C 318.705 66.977,315.060 69.324,313.363 69.332 C 313.150 69.333,312.864 69.446,312.726 69.583 C 312.377 69.933,305.583 69.954,305.079 69.607 C 304.898 69.483,304.355 69.330,303.872 69.268 C 301.371 68.945,296.872 65.544,296.836 63.949 C 296.835 63.875,296.678 63.473,296.487 63.056 C 295.418 60.708,295.867 54.087,297.198 52.573 C 297.364 52.383,297.500 52.158,297.500 52.071 C 297.500 50.934,302.268 47.673,303.945 47.663 C 304.321 47.661,304.755 47.525,305.000 47.333 C 305.639 46.834,311.495 46.834,312.250 47.333 M339.545 47.333 C 339.782 47.519,340.222 47.667,340.539 47.667 C 342.746 47.667,346.248 50.286,347.633 52.972 C 348.323 54.311,348.457 54.746,348.850 56.917 C 349.166 58.664,348.715 61.786,347.935 63.250 C 347.789 63.525,347.668 63.839,347.668 63.947 C 347.665 64.561,343.985 68.333,343.390 68.333 C 343.325 68.333,342.962 68.483,342.583 68.667 C 342.205 68.850,341.453 69.082,340.913 69.182 C 340.373 69.281,339.780 69.469,339.595 69.598 C 339.124 69.928,333.562 69.938,333.079 69.610 C 332.898 69.487,332.310 69.300,331.772 69.195 C 331.235 69.090,330.551 68.853,330.253 68.668 C 329.955 68.484,329.595 68.333,329.454 68.333 C 329.152 68.333,327.433 66.970,326.833 66.256 C 326.604 65.982,326.304 65.643,326.167 65.503 C 325.671 64.994,324.833 63.763,324.833 63.542 C 324.833 63.418,324.708 63.077,324.556 62.783 C 323.252 60.277,323.761 55.100,325.591 52.254 C 326.281 51.180,328.909 48.667,329.341 48.667 C 329.434 48.667,329.889 48.475,330.352 48.241 C 330.814 48.006,331.581 47.770,332.055 47.715 C 332.529 47.661,333.096 47.477,333.314 47.308 C 333.936 46.826,338.926 46.846,339.545 47.333 M370.836 47.311 C 371.155 47.482,371.667 47.677,371.974 47.744 C 372.338 47.824,372.913 48.241,373.630 48.944 C 375.024 50.311,375.237 50.428,375.627 50.045 C 375.792 49.883,376.286 49.487,376.724 49.167 C 377.162 48.846,377.726 48.421,377.976 48.222 C 378.227 48.024,378.728 47.807,379.091 47.740 C 379.453 47.673,379.929 47.479,380.147 47.309 C 380.763 46.831,384.479 46.849,384.917 47.333 C 385.083 47.517,385.417 47.667,385.660 47.667 C 386.896 47.667,388.944 49.665,389.694 51.601 C 390.231 52.990,390.403 68.914,389.882 69.127 C 389.408 69.322,382.210 69.277,382.011 69.078 C 381.900 68.967,381.824 66.538,381.795 62.245 L 381.750 55.583 381.311 54.860 C 380.496 53.515,379.067 53.019,377.911 53.680 C 376.909 54.252,376.704 54.472,376.251 55.462 L 375.833 56.374 375.828 62.562 C 375.824 67.443,375.776 68.812,375.601 69.042 C 375.301 69.437,367.967 69.491,367.577 69.101 C 367.387 68.911,367.335 67.617,367.297 62.059 L 367.250 55.250 366.775 54.629 C 365.347 52.763,363.163 53.084,361.917 55.343 L 361.417 56.250 361.364 62.580 C 361.330 66.703,361.250 68.983,361.135 69.121 C 360.874 69.436,353.451 69.426,353.190 69.111 C 352.922 68.788,352.914 48.221,353.182 47.898 C 353.420 47.611,359.986 47.558,360.511 47.839 C 360.775 47.980,360.833 48.194,360.833 49.009 L 360.833 50.006 361.292 49.895 C 361.544 49.833,361.805 49.691,361.872 49.578 C 362.136 49.136,364.290 47.819,364.917 47.718 C 365.278 47.659,365.721 47.474,365.902 47.306 C 366.388 46.852,369.987 46.856,370.836 47.311 M111.885 53.134 C 110.648 53.527,109.074 55.404,109.526 55.948 C 109.786 56.262,116.803 56.264,117.232 55.950 C 117.676 55.626,116.995 54.301,116.026 53.604 C 115.280 53.068,112.932 52.801,111.885 53.134 M140.137 53.155 C 136.893 54.196,136.229 60.993,139.153 63.224 C 141.353 64.901,144.304 63.803,145.158 60.990 C 146.592 56.270,143.835 51.968,140.137 53.155 M335.079 53.142 C 334.434 53.348,333.482 54.255,332.952 55.167 L 332.419 56.083 332.427 58.500 C 332.442 63.266,335.650 65.609,338.800 63.154 C 340.571 61.774,341.101 56.550,339.652 54.752 C 338.405 53.203,336.728 52.613,335.079 53.142 M291.393 60.930 C 291.809 61.090,291.807 68.569,291.391 69.029 C 290.979 69.483,283.568 69.495,283.014 69.042 C 282.471 68.597,282.544 61.196,283.094 60.921 C 283.464 60.737,290.909 60.745,291.393 60.930 " stroke="none" fill="#040404" fill-rule="evenodd"></path></g></svg>